# xmcd
#
# Track frame offsets:
#	150
#	8031
#	14649
#	21748
#	28786
#	34351
#	41673
#	48389
#	52784
#	59552
#	65060
#	72667
#	79215
#	85366
#	93221
#	100341
#	108382
#	116164
#	124186
#	132122
#	144116
#	151783
#	163014
#	174248
#
# Disc length: 2471 seconds
#
# Revision: 1
# Processed by: cddbd v1.5.1PL0 Copyright (c) Steve Scherf et al.
# Submitted via: CDex 1.50Beta5
#
DISCID=4f09a518
DTITLE=LIP2 - RUN オリジナルサウンドトラックス 完全収録版 and アレンジ
DYEAR=1900
DGENRE=Soundtrack
TTITLE0=不思議少女
TTITLE1=甘いものは好きですか?
TTITLE2=幼馴染みは看護婦さん
TTITLE3=初めての冒険
TTITLE4=酔いどれおねーさん
TTITLE5=旅立ち
TTITLE6=風を切って
TTITLE7=危機一髪!
TTITLE8=知らない街
TTITLE9=楽しいショッピング?
TTITLE10=見つからない答え
TTITLE11=アクティブで行こう
TTITLE12=思い出は美しく
TTITLE13=真実は哀しみと共に
TTITLE14=神秘
TTITLE15=己を超えて
TTITLE16=想い通じ合う時
TTITLE17=蜜月
TTITLE18=その向こう側にある風景
TTITLE19=風のように(オルゴール)
TTITLE20=風のように(アレンジ)
TTITLE21=風のように(主題歌)
TTITLE22=風のように(カラオケ)
TTITLE23=風のように(インスト)
EXTD=
EXTT0=
EXTT1=
EXTT2=
EXTT3=
EXTT4=
EXTT5=
EXTT6=
EXTT7=
EXTT8=
EXTT9=
EXTT10=
EXTT11=
EXTT12=
EXTT13=
EXTT14=
EXTT15=
EXTT16=
EXTT17=
EXTT18=
EXTT19=
EXTT20=
EXTT21=
EXTT22=
EXTT23=
PLAYORDER=
